<svg width="51" height="19" fill="none" xmlns="http://www.w3.org/2000/svg"><g clip-path="url(#a)"><path d="M23.42 1.946h.466l2.326 5.54h-.584l-.725-1.733h-2.515l-.717 1.733h-.591l2.34-5.54Zm1.357 3.378-1.128-2.738-1.143 2.738h2.27ZM31.008 6.674c-.52.567-1.12.85-1.798.85a2.3 2.3 0 0 1-1.048-.241 2.819 2.819 0 0 1-.828-.64 3.07 3.07 0 0 1-.544-.897 2.842 2.842 0 0 1-.197-1.038c0-.37.063-.723.19-1.061.13-.338.312-.635.543-.89.232-.26.505-.465.82-.616.315-.156.66-.234 1.033-.234.273 0 .523.031.749.093.226.058.425.14.599.25.178.104.33.232.457.382.131.146.242.307.331.484l-.426.281c-.183-.343-.423-.596-.717-.757a2.05 2.05 0 0 0-1.001-.242c-.31 0-.591.065-.844.195-.247.13-.46.305-.638.523-.174.213-.308.46-.402.741a2.626 2.626 0 0 0 .016 1.748c.11.281.26.528.449.741.19.208.41.375.662.5a2.005 2.005 0 0 0 1.75-.031c.294-.151.576-.388.844-.71v-.921h-1.246v-.422h1.71v2.724h-.464v-.812ZM32.764 7.486v-5.54h.552v5.54h-.552ZM34.877 7.486v-5.54h.552v5.056h3.232v.484h-3.784ZM43.391 7.002v.484h-3.76v-5.54h3.69v.484h-3.139v1.997h2.736v.46h-2.736v2.115h3.209ZM25.083 15.29v1.326h-4.006v-5.54h3.934v1.327h-2.39v.78h2.042v1.233H22.62v.873h2.463ZM27.503 13.893v2.723h-1.544v-5.54h1.203l2.257 2.817v-2.817h1.543v5.54h-1.227l-2.232-2.723ZM35.902 16.156c-.401.333-.863.5-1.385.5-.364 0-.713-.063-1.045-.188a2.548 2.548 0 0 1-.871-.562 2.705 2.705 0 0 1-.594-.897 3.112 3.112 0 0 1-.222-1.21c0-.39.074-.751.222-1.084.148-.338.35-.63.61-.874a2.963 2.963 0 0 1 2.05-.804c.253 0 .496.03.728.086.233.052.446.133.642.242.2.104.38.232.538.383.159.145.288.312.388.499l-1.148.866a1.258 1.258 0 0 0-.499-.523 1.33 1.33 0 0 0-.704-.203 1.163 1.163 0 0 0-.903.414c-.11.13-.198.286-.261.468a1.723 1.723 0 0 0-.095.585c0 .219.032.416.095.593s.15.33.261.46c.116.126.253.224.412.297.158.068.335.102.53.102.449 0 .845-.182 1.188-.547h-.974v-1.092h2.312v2.95h-1.275v-.461ZM38.097 16.616v-5.54h1.544v5.54h-1.544ZM42.313 13.893v2.723h-1.544v-5.54h1.203l2.256 2.817v-2.817h1.544v5.54h-1.227l-2.233-2.723ZM50.902 15.29v1.326h-4.007v-5.54h3.935v1.327h-2.39v.78h2.042v1.233H48.44v.873h2.462Z" fill="#fff"/><path fill-rule="evenodd" clip-rule="evenodd" d="m4.205 14.71-.86-.835.453-1.319-2.351.44 3.165-5.013 2.486-.396c.226-.454 1.058-1.732 2.578-3.21C11.575 2.531 15.825.508 19.125.2c-.316 3.21-2.396 7.343-4.295 9.19-1.52 1.478-2.834 2.287-3.3 2.507l-.408 2.418-5.154 3.078.452-2.287-1.356.44-.86-.835Zm6.149-7.21a.854.854 0 0 0 0 1.23c.35.34.916.34 1.266 0a.854.854 0 0 0 0-1.23.913.913 0 0 0-1.266 0Zm2.26-2.2a.854.854 0 0 0 0 1.232c.35.34.917.34 1.266 0a.854.854 0 0 0 0-1.231.913.913 0 0 0-1.266 0Z" fill="url(#b)"/><path d="M0 18.8c.196-.689.895-2.366 2.125-3.562.579-.562 1.236-.205 1.492.045.256.249.624.888.045 1.45C2.432 17.93.708 18.61 0 18.8Z" fill="url(#c)"/></g><defs><linearGradient id="b" x1="10.286" y1="18.863" x2="10.286" y2="8.797" gradientUnits="userSpaceOnUse"><stop stop-color="#FFB795"/><stop offset="1" stop-color="#FF7A00"/></linearGradient><linearGradient id="c" x1="1.985" y1="14.939" x2="1.985" y2="18.8" gradientUnits="userSpaceOnUse"><stop stop-color="#FAE9BF"/><stop offset="1" stop-color="#F4AB3E"/></linearGradient><clipPath id="a"><path fill="#fff" transform="translate(0 .2)" d="M0 0h51v18.6H0z"/></clipPath></defs></svg>