<svg width="103" height="41" fill="none" xmlns="http://www.w3.org/2000/svg"><path d="M27.916 5.849c-.988-.527-1.707-.839-2.802-1.157L24.372 0h-7.746l-.741 4.692a16.364 16.364 0 0 0-3.132 1.274l-.33.212L8.63 3.45 5.89 6.186 3.151 8.92l2.797 3.842a16.35 16.35 0 0 0-1.25 3.045v.165L0 16.713V24.452l4.697.74a16.352 16.352 0 0 0 1.358 3.243l-2.774 3.835 2.738 2.736 2.739 2.735 3.846-2.794.15.088c.987.527 2.035.956 3.13 1.274L16.627 41h7.746l.742-4.692a16.388 16.388 0 0 0 3.132-1.274l.172-.081 3.845 2.793 2.739-2.735 2.739-2.736-2.797-3.841c.562-1.02 1.02-2.27 1.358-3.407l4.697-.74V16.548l-4.697-.74a16.348 16.348 0 0 0-1.252-3.046l2.797-3.842-2.738-2.735L32.37 3.45l-3.846 2.794-.608-.395Z" fill="url(#a)"/><g filter="url(#b)"><path fill-rule="evenodd" clip-rule="evenodd" d="M20.5 30.75c5.66 0 10.25-4.59 10.25-10.25S26.16 10.25 20.5 10.25c-5.661 0-10.25 4.59-10.25 10.25s4.589 10.25 10.25 10.25Z" fill="url(#c)"/></g><path fill-rule="evenodd" clip-rule="evenodd" d="m29.995 15.105-10.27 10.798-5.745-6.051 2.807-2.653 2.94 3.098 7.464-7.847 2.804 2.655Z" fill="#EB690D"/><path d="M53.153.915h.717l3.586 8.602h-.9l-1.118-2.69h-3.877l-1.106 2.69h-.911l3.61-8.602Zm2.09 5.246-1.737-4.253-1.763 4.253h3.5Z" fill="url(#d)"/><path d="M61.836 9.578c-.575 0-1.11-.121-1.605-.363a4.21 4.21 0 0 1-1.288-1.006 4.8 4.8 0 0 1-.85-1.406 4.506 4.506 0 0 1-.292-1.6c0-.58.097-1.13.291-1.647a4.57 4.57 0 0 1 .84-1.393 3.965 3.965 0 0 1 1.263-.958 3.62 3.62 0 0 1 1.592-.351c.85 0 1.544.174 2.078.521.535.347.94.8 1.216 1.357l-.657.436c-.275-.533-.644-.925-1.106-1.175a3.185 3.185 0 0 0-1.543-.376 2.78 2.78 0 0 0-1.3.303 3.17 3.17 0 0 0-.985.812c-.275.34-.486.723-.632 1.151a4.326 4.326 0 0 0-.206 1.333c0 .485.08.945.243 1.381.162.428.393.812.692 1.151.3.332.644.594 1.033.788.397.186.823.279 1.277.279.526 0 1.024-.13 1.494-.388.47-.267.92-.675 1.35-1.224V8.1c-.819.985-1.787 1.478-2.905 1.478Zm2.77-3.635h-1.92v-.654h2.638v4.228h-.717V5.943Z" fill="url(#e)"/><path d="M67.072 9.517V.915h.85v8.602h-.85Z" fill="url(#f)"/><path d="M70.086 9.517V.915h.851v7.851h4.983v.751h-5.834Z" fill="url(#g)"/><path d="M82.969 8.766v.751h-5.797V.915h5.688v.75h-4.837v3.103h4.217v.715h-4.217v3.283h4.946Z" fill="url(#h)"/><path d="M54.028 24.83a4.28 4.28 0 0 1-1.786-.364 4.358 4.358 0 0 1-1.386-.981 4.746 4.746 0 0 1-.887-1.406 4.475 4.475 0 0 1-.304-1.624c0-.573.11-1.118.328-1.635.219-.525.523-.99.912-1.394a4.432 4.432 0 0 1 1.397-.957 4.302 4.302 0 0 1 1.775-.364c.656 0 1.252.126 1.786.376.535.25.993.586 1.374 1.006.38.42.672.892.875 1.417a4.2 4.2 0 0 1-.012 3.224 4.37 4.37 0 0 1-2.297 2.35 4.374 4.374 0 0 1-1.775.351Zm.025-2.097c.34 0 .636-.064.887-.194.25-.129.453-.303.607-.52.162-.219.28-.461.353-.728a2.94 2.94 0 0 0 0-1.672 2.191 2.191 0 0 0-.365-.727 1.705 1.705 0 0 0-.62-.497 1.888 1.888 0 0 0-.875-.193c-.34 0-.636.064-.887.193a1.8 1.8 0 0 0-.608.522 2.334 2.334 0 0 0-.364.739c-.073.266-.11.54-.11.824 0 .29.041.57.122.836.081.266.203.509.365.727.162.21.364.38.607.509.252.12.547.181.888.181Zm-.973-1.6h2.212l3.355 3.636h-2.212l-3.355-3.635Z" fill="url(#i)"/><path d="M63.2 24.842c-.689 0-1.28-.113-1.775-.34a3.264 3.264 0 0 1-1.215-.933 3.966 3.966 0 0 1-.68-1.357 5.954 5.954 0 0 1-.22-1.623v-4.423h2.37v4.423c0 .282.029.553.086.812.056.258.145.488.267.69.122.202.276.364.462.485.194.113.43.17.705.17.283 0 .522-.057.717-.17.194-.121.348-.283.462-.485.121-.21.21-.444.267-.703.057-.258.085-.525.085-.8v-4.422h2.37v4.423c0 .597-.081 1.155-.243 1.672-.154.517-.389.97-.705 1.357-.316.388-.721.69-1.215.909-.486.21-1.066.315-1.738.315Z" fill="url(#j)"/><path d="M70.125 16.166h2.65l2.746 8.603h-2.406l-.523-1.684h-2.297l-.51 1.684h-2.419l2.759-8.603Zm2.09 5.343-.765-3.029-.802 3.03h1.567Z" fill="url(#k)"/><path d="M76.238 24.769v-8.603h2.37v6.543h3.913v2.06h-6.283Z" fill="url(#l)"/><path d="M83.347 24.769v-8.603h2.37v8.603h-2.37Z" fill="url(#m)"/><path d="M93.925 18.226h-2.479v6.543h-2.37v-6.543h-2.491v-2.06h7.34v2.06Z" fill="url(#n)"/><path d="m96.539 16.166 1.543 3.514 1.58-3.514h2.577l-2.978 5.756v2.847h-2.358v-2.872l-2.929-5.73h2.565Z" fill="url(#o)"/><path d="m55.365 34.229-.207-.122c-.137-.08-.32-.17-.546-.266a5.67 5.67 0 0 0-.742-.279 2.722 2.722 0 0 0-.79-.121c-.202 0-.368.032-.498.097s-.194.174-.194.327c0 .145.064.263.194.352.13.088.312.17.547.242.243.072.53.161.863.266.535.162.996.348 1.385.558.39.21.689.48.9.812.21.323.316.755.316 1.296 0 .517-.094.953-.28 1.309a2.278 2.278 0 0 1-.754.836c-.316.21-.668.363-1.057.46a5.333 5.333 0 0 1-1.19.133c-.414 0-.847-.04-1.301-.12a9.946 9.946 0 0 1-1.3-.352 7.245 7.245 0 0 1-1.155-.533l1.02-2.072.244.145a7.042 7.042 0 0 0 1.531.654c.332.097.664.146.997.146.259 0 .437-.032.534-.097.106-.073.158-.166.158-.279 0-.17-.089-.299-.267-.387a3.402 3.402 0 0 0-.705-.267c-.283-.089-.6-.19-.948-.303-.502-.17-.915-.36-1.24-.57a2.132 2.132 0 0 1-.717-.763c-.153-.299-.23-.658-.23-1.078 0-.638.15-1.171.45-1.6a2.82 2.82 0 0 1 1.178-.969 3.78 3.78 0 0 1 1.592-.34c.422 0 .827.053 1.215.158.398.097.766.219 1.106.364.349.145.653.283.912.412l-1.02 1.95Z" fill="url(#p)"/><path d="M64.36 33.477h-2.478v6.543h-2.37v-6.543H57.02v-2.06h7.34v2.06Z" fill="url(#q)"/><path d="M68.992 40.093c-.69 0-1.28-.113-1.775-.34a3.262 3.262 0 0 1-1.215-.932 3.963 3.963 0 0 1-.68-1.357 5.954 5.954 0 0 1-.22-1.624v-4.423h2.37v4.423c0 .283.029.553.086.812.056.258.145.489.267.69.121.203.275.364.462.485.194.113.43.17.705.17.283 0 .522-.057.717-.17.194-.12.348-.282.462-.484.121-.21.21-.445.267-.703.057-.259.085-.525.085-.8v-4.423h2.37v4.423a5.56 5.56 0 0 1-.243 1.672c-.154.517-.39.97-.705 1.357a3.21 3.21 0 0 1-1.215.91c-.487.21-1.066.314-1.738.314Z" fill="url(#r)"/><path d="M74.256 40.02v-8.603h3.318c.956 0 1.754.194 2.394.582a3.64 3.64 0 0 1 1.459 1.551c.332.646.498 1.365.498 2.157 0 .872-.182 1.632-.547 2.278a3.723 3.723 0 0 1-1.52 1.502c-.647.356-1.409.533-2.284.533h-3.318Zm5.263-4.313c0-.444-.078-.832-.231-1.163a1.778 1.778 0 0 0-.669-.788c-.291-.186-.64-.279-1.045-.279h-.948v4.484h.948c.413 0 .762-.097 1.045-.291.292-.194.515-.46.669-.8.154-.347.23-.735.23-1.163Z" fill="url(#s)"/><path d="M82.956 40.02v-8.603h2.37v8.603h-2.37Z" fill="url(#t)"/><path d="M90.702 40.093a4.28 4.28 0 0 1-1.786-.363 4.519 4.519 0 0 1-1.386-.994 4.742 4.742 0 0 1-.887-1.405 4.474 4.474 0 0 1-.304-1.624c0-.574.11-1.119.328-1.636.219-.517.523-.977.912-1.381a4.336 4.336 0 0 1 1.397-.97 4.43 4.43 0 0 1 1.775-.35c.656 0 1.251.124 1.786.375.535.242.993.573 1.374.993.38.42.672.893.875 1.418a4.202 4.202 0 0 1-.013 3.223 4.37 4.37 0 0 1-.911 1.393c-.389.404-.85.727-1.385.97a4.374 4.374 0 0 1-1.775.351Zm-1.957-4.362c0 .29.04.574.122.848.081.267.203.51.365.727.162.21.364.38.607.51.251.12.547.18.887.18.34 0 .636-.064.888-.193.25-.13.453-.303.607-.521.162-.226.28-.472.353-.74a2.94 2.94 0 0 0 0-1.671 2.213 2.213 0 0 0-.365-.715 1.656 1.656 0 0 0-.62-.509 1.99 1.99 0 0 0-.875-.182c-.34 0-.636.065-.887.194a1.8 1.8 0 0 0-.608.521c-.162.21-.283.453-.364.727a3.11 3.11 0 0 0-.11.824Z" fill="url(#u)"/><defs><linearGradient id="k" x1="66.644" y1="13.747" x2="80.278" y2="24.748" gradientUnits="userSpaceOnUse"><stop stop-color="#fff"/><stop offset="1" stop-color="#EAEAEA"/></linearGradient><linearGradient id="u" x1="66.644" y1="13.747" x2="80.278" y2="24.748" gradientUnits="userSpaceOnUse"><stop stop-color="#fff"/><stop offset="1" stop-color="#EAEAEA"/></linearGradient><linearGradient id="c" x1="20.5" y1="10.25" x2="20.5" y2="30.75" gradientUnits="userSpaceOnUse"><stop stop-color="#FAE9BF"/><stop offset="1" stop-color="#F4AB3E"/></linearGradient><linearGradient id="d" x1="66.644" y1="13.747" x2="80.278" y2="24.748" gradientUnits="userSpaceOnUse"><stop stop-color="#fff"/><stop offset="1" stop-color="#EAEAEA"/></linearGradient><linearGradient id="e" x1="66.644" y1="13.747" x2="80.278" y2="24.748" gradientUnits="userSpaceOnUse"><stop stop-color="#fff"/><stop offset="1" stop-color="#EAEAEA"/></linearGradient><linearGradient id="f" x1="66.644" y1="13.747" x2="80.278" y2="24.748" gradientUnits="userSpaceOnUse"><stop stop-color="#fff"/><stop offset="1" stop-color="#EAEAEA"/></linearGradient><linearGradient id="g" x1="66.644" y1="13.747" x2="80.278" y2="24.748" gradientUnits="userSpaceOnUse"><stop stop-color="#fff"/><stop offset="1" stop-color="#EAEAEA"/></linearGradient><linearGradient id="h" x1="66.644" y1="13.747" x2="80.278" y2="24.748" gradientUnits="userSpaceOnUse"><stop stop-color="#fff"/><stop offset="1" stop-color="#EAEAEA"/></linearGradient><linearGradient id="i" x1="66.644" y1="13.747" x2="80.278" y2="24.748" gradientUnits="userSpaceOnUse"><stop stop-color="#fff"/><stop offset="1" stop-color="#EAEAEA"/></linearGradient><linearGradient id="j" x1="66.644" y1="13.747" x2="80.278" y2="24.748" gradientUnits="userSpaceOnUse"><stop stop-color="#fff"/><stop offset="1" stop-color="#EAEAEA"/></linearGradient><linearGradient id="a" x1="20.499" y1="0" x2="20.499" y2="41" gradientUnits="userSpaceOnUse"><stop stop-color="#FF7A00"/><stop offset="1" stop-color="#E35224"/></linearGradient><linearGradient id="l" x1="66.644" y1="13.747" x2="80.278" y2="24.748" gradientUnits="userSpaceOnUse"><stop stop-color="#fff"/><stop offset="1" stop-color="#EAEAEA"/></linearGradient><linearGradient id="m" x1="66.644" y1="13.747" x2="80.278" y2="24.748" gradientUnits="userSpaceOnUse"><stop stop-color="#fff"/><stop offset="1" stop-color="#EAEAEA"/></linearGradient><linearGradient id="n" x1="66.644" y1="13.747" x2="80.278" y2="24.748" gradientUnits="userSpaceOnUse"><stop stop-color="#fff"/><stop offset="1" stop-color="#EAEAEA"/></linearGradient><linearGradient id="o" x1="66.644" y1="13.747" x2="80.278" y2="24.748" gradientUnits="userSpaceOnUse"><stop stop-color="#fff"/><stop offset="1" stop-color="#EAEAEA"/></linearGradient><linearGradient id="p" x1="66.644" y1="13.747" x2="80.278" y2="24.748" gradientUnits="userSpaceOnUse"><stop stop-color="#fff"/><stop offset="1" stop-color="#EAEAEA"/></linearGradient><linearGradient id="q" x1="66.644" y1="13.747" x2="80.278" y2="24.748" gradientUnits="userSpaceOnUse"><stop stop-color="#fff"/><stop offset="1" stop-color="#EAEAEA"/></linearGradient><linearGradient id="r" x1="66.644" y1="13.747" x2="80.278" y2="24.748" gradientUnits="userSpaceOnUse"><stop stop-color="#fff"/><stop offset="1" stop-color="#EAEAEA"/></linearGradient><linearGradient id="s" x1="66.644" y1="13.747" x2="80.278" y2="24.748" gradientUnits="userSpaceOnUse"><stop stop-color="#fff"/><stop offset="1" stop-color="#EAEAEA"/></linearGradient><linearGradient id="t" x1="66.644" y1="13.747" x2="80.278" y2="24.748" gradientUnits="userSpaceOnUse"><stop stop-color="#fff"/><stop offset="1" stop-color="#EAEAEA"/></linearGradient><filter id="b" x=".466" y=".466" width="40.067" height="40.068" filterUnits="userSpaceOnUse" color-interpolation-filters="sRGB"><feFlood flood-opacity="0" result="BackgroundImageFix"/><feGaussianBlur in="BackgroundImageFix" stdDeviation="4.892"/><feComposite in2="SourceAlpha" operator="in" result="effect1_backgroundBlur_413_3804"/><feColorMatrix in="SourceAlpha" values="0 0 0 0 0 0 0 0 0 0 0 0 0 0 0 0 0 0 127 0" result="hardAlpha"/><feOffset/><feGaussianBlur stdDeviation=".978"/><feComposite in2="hardAlpha" operator="out"/><feColorMatrix values="0 0 0 0 0 0 0 0 0 0 0 0 0 0 0 0 0 0 0.15 0"/><feBlend in2="effect1_backgroundBlur_413_3804" result="effect2_dropShadow_413_3804"/><feBlend in="SourceGraphic" in2="effect2_dropShadow_413_3804" result="shape"/><feColorMatrix in="SourceAlpha" values="0 0 0 0 0 0 0 0 0 0 0 0 0 0 0 0 0 0 127 0" result="hardAlpha"/><feOffset dy=".245"/><feGaussianBlur stdDeviation=".245"/><feComposite in2="hardAlpha" operator="arithmetic" k2="-1" k3="1"/><feColorMatrix values="0 0 0 0 0.342674 0 0 0 0 0.352133 0 0 0 0 0.579167 0 0 0 0.1 0"/><feBlend mode="darken" in2="shape" result="effect3_innerShadow_413_3804"/></filter></defs></svg>